<?xml version="1.0" standalone="no"?>
<!DOCTYPE svg PUBLIC "-//W3C//DTD SVG 20010904//EN"
 "http://www.w3.org/TR/2001/REC-SVG-20010904/DTD/svg10.dtd">
<svg version="1.0" xmlns="http://www.w3.org/2000/svg"
 width="303.000000pt" height="303.000000pt" viewBox="0 0 303.000000 303.000000"
 preserveAspectRatio="xMidYMid meet">
<metadata>
Created by potrace 1.11, written by Peter Selinger 2001-2013
</metadata>
<g transform="translate(0.000000,303.000000) scale(0.100000,-0.100000)"
fill="#000000" stroke="none">
<path d="M1951 2724 c-221 -75 -356 -262 -356 -494 0 -151 47 -264 154 -371
105 -105 213 -148 372 -149 390 -1 636 401 462 755 -57 117 -185 226 -311 265
-95 29 -225 27 -321 -6z m458 -271 c23 -27 41 -55 41 -63 0 -17 -399 -420
-416 -420 -12 0 -254 247 -254 259 0 4 23 29 51 56 l50 50 26 -30 c14 -16 45
-52 69 -79 l43 -49 168 161 c92 89 171 162 175 162 3 0 25 -21 47 -47z"/>
<path d="M240 2230 l0 -70 153 0 c134 0 156 -2 170 -17 8 -10 126 -274 262
-588 136 -315 256 -578 267 -587 19 -17 63 -18 624 -18 586 0 604 1 614 19 11
22 13 80 4 105 -6 14 -64 16 -563 16 -612 0 -586 -3 -611 62 -62 154 -485
1117 -497 1130 -14 16 -38 18 -220 18 l-203 0 0 -70z"/>
<path d="M1000 1987 c0 -27 281 -713 297 -724 25 -19 1038 -19 1050 0 10 17
161 401 158 405 -1 1 -38 -16 -81 -38 -114 -57 -188 -74 -319 -73 -90 0 -125
5 -190 27 -162 52 -284 150 -375 302 -32 52 -62 90 -80 99 -39 20 -460 22
-460 2z"/>
<path d="M1296 780 c-202 -61 -204 -355 -2 -420 104 -33 217 10 265 103 91
177 -72 374 -263 317z"/>
<path d="M2036 775 c-82 -29 -136 -110 -136 -205 0 -129 93 -220 222 -220 126
1 218 94 218 221 0 153 -155 257 -304 204z"/>
</g>
</svg>
